<?xml version="1.0" encoding="utf-8"?>
<!-- Generator: Adobe Illustrator 16.0.0, SVG Export Plug-In . SVG Version: 6.00 Build 0)  -->
<!DOCTYPE svg PUBLIC "-//W3C//DTD SVG 1.1//EN" "http://www.w3.org/Graphics/SVG/1.1/DTD/svg11.dtd">
<svg version="1.1" id="Слой_1" xmlns="http://www.w3.org/2000/svg" xmlns:xlink="http://www.w3.org/1999/xlink" x="0px" y="0px"
	 width="512px" height="512px" viewBox="0 0 512 512" enable-background="new 0 0 512 512" xml:space="preserve">
<path fill="none" d="M98.978,239.01c0,40.607,31.974,73.644,71.275,73.645v-147.29C130.952,165.365,98.978,198.401,98.978,239.01z"
	/>
<linearGradient id="SVGID_1_" gradientUnits="userSpaceOnUse" x1="142.8433" y1="337.4189" x2="166.4009" y2="225.3157" gradientTransform="matrix(3.7133 0.3034 -0.1347 1.6486 -290.0436 -230.4567)">
	<stop  offset="0" style="stop-color:#02C3F3"/>
	<stop  offset="1" style="stop-color:#0089A3"/>
</linearGradient>
<polygon fill="url(#SVGID_1_)" points="116.174,355.271 455,221.797 138.666,163.479 "/>
<g>
	<path fill="#FFFFFF" d="M143.218,229.675c0-5.004-0.091-9.306-0.361-13.256h6.958l0.271,8.34h0.361
		c1.988-5.708,6.779-9.306,12.111-9.306c0.904,0,1.536,0.088,2.259,0.263v7.288c-0.813-0.176-1.626-0.264-2.711-0.264
		c-5.604,0-9.579,4.125-10.664,9.92c-0.181,1.053-0.361,2.282-0.361,3.599v22.65h-7.863V229.675z"/>
	<path fill="#FFFFFF" d="M176.293,239.068c0.181,10.447,7.05,14.75,15.002,14.75c5.694,0,9.129-0.967,12.111-2.195l1.355,5.53
		c-2.802,1.229-7.592,2.634-14.55,2.634c-13.467,0-21.51-8.604-21.51-21.42c0-12.818,7.772-22.914,20.515-22.914
		c14.28,0,18.076,12.202,18.076,20.016c0,1.581-0.181,2.81-0.272,3.599H176.293z M199.61,233.538
		c0.09-4.916-2.079-12.554-11.025-12.554c-8.044,0-11.568,7.199-12.202,12.554H199.61z"/>
	<path fill="#FFFFFF" d="M241.361,258.909l-0.633-5.355h-0.271c-2.44,3.336-7.139,6.321-13.375,6.321
		c-8.857,0-13.376-6.057-13.376-12.203c0-10.271,9.399-15.89,26.299-15.802v-0.878c0-3.512-0.994-9.833-9.941-9.833
		c-4.067,0-8.315,1.229-11.389,3.161l-1.807-5.092c3.615-2.283,8.856-3.775,14.37-3.775c13.375,0,16.628,8.867,16.628,17.382v15.89
		c0,3.688,0.182,7.287,0.724,10.184H241.361z M240.186,237.225c-8.677-0.175-18.528,1.317-18.528,9.57
		c0,5.004,3.435,7.373,7.501,7.373c5.694,0,9.31-3.511,10.575-7.11c0.271-0.79,0.452-1.667,0.452-2.458V237.225z"/>
	<path fill="#FFFFFF" d="M269.916,204.216v12.203h11.388v5.882h-11.388v22.914c0,5.268,1.537,8.252,5.965,8.252
		c2.079,0,3.615-0.264,4.61-0.527l0.36,5.794c-1.536,0.614-3.977,1.054-7.05,1.054c-3.705,0-6.688-1.141-8.584-3.248
		c-2.26-2.283-3.074-6.057-3.074-11.062v-23.177h-6.778v-5.882h6.778v-10.183L269.916,204.216z"/>
	<path fill="#FFFFFF" d="M329.292,237.313c0,15.714-11.208,22.562-21.78,22.562c-11.84,0-20.968-8.429-20.968-21.86
		c0-14.221,9.579-22.561,21.69-22.561C320.797,215.454,329.292,224.32,329.292,237.313z M294.588,237.752
		c0,9.306,5.512,16.328,13.283,16.328c7.593,0,13.286-6.935,13.286-16.504c0-7.199-3.705-16.329-13.104-16.329
		C298.654,221.248,294.588,229.675,294.588,237.752z"/>
	<path fill="#FFFFFF" d="M339.319,229.675c0-5.004-0.091-9.306-0.362-13.256h6.958l0.273,8.34h0.361
		c1.988-5.708,6.778-9.306,12.11-9.306c0.903,0,1.536,0.088,2.259,0.263v7.288c-0.813-0.176-1.625-0.264-2.712-0.264
		c-5.604,0-9.578,4.125-10.663,9.92c-0.183,1.053-0.362,2.282-0.362,3.599v22.65h-7.862V229.675z"/>
</g>
<path d="M170.253,161.146v-19.858c-44.872,0-81.379,36.157-81.379,80.6c0,28.917,15.463,54.314,38.623,68.538
	c11.049,6.786,23.849,11.019,37.563,11.879c2.293-2.887,3.643-6.383,3.643-10.154c0-3.593-1.229-6.93-3.326-9.733
	c-8.689-0.693-16.874-3.199-24.157-7.166c-18.926-10.309-31.797-30.363-31.797-53.363
	C109.422,188.395,136.711,161.147,170.253,161.146z"/>
<linearGradient id="SVGID_2_" gradientUnits="userSpaceOnUse" x1="41.7627" y1="155.6143" x2="136.4209" y2="155.6143" gradientTransform="matrix(0.148 -0.989 0.989 0.148 17.1867 222.6332)">
	<stop  offset="0" style="stop-color:#ED1C24"/>
	<stop  offset="0.3646" style="stop-color:#CC1923"/>
	<stop  offset="1" style="stop-color:#950D1A"/>
</linearGradient>
<path fill="url(#SVGID_2_)" d="M191.276,110.742c26.635,3.985,45.091,28.172,41.222,54.024
	c-3.868,25.852-28.595,43.578-55.23,39.592c-26.634-3.985-45.091-28.172-41.223-54.024
	C139.913,124.482,164.641,106.756,191.276,110.742z"/>
<g>
	<path fill="#FFFFFF" d="M145.442,167.667c1.878,1.228,5.201,2.528,8.379,2.528c4.623,0,6.79-2.312,6.79-5.201
		c0-3.034-1.806-4.695-6.501-6.429c-6.285-2.24-9.246-5.707-9.246-9.896c0-5.634,4.551-10.257,12.063-10.257
		c3.54,0,6.646,1.011,8.596,2.167l-1.589,4.623c-1.373-0.867-3.9-2.022-7.151-2.022c-3.756,0-5.851,2.167-5.851,4.768
		c0,2.889,2.095,4.189,6.646,5.923c6.067,2.312,9.174,5.345,9.174,10.546c0,6.14-4.768,10.474-13.075,10.474
		c-3.829,0-7.368-0.939-9.824-2.384L145.442,167.667z"/>
	<path fill="#FFFFFF" d="M174.911,148.669c0-3.612-0.072-6.573-0.289-9.463h5.562l0.289,5.634h0.216
		c1.951-3.323,5.201-6.429,10.98-6.429c4.768,0,8.379,2.889,9.896,7.007h0.145c1.083-1.95,2.456-3.467,3.901-4.551
		c2.095-1.589,4.406-2.456,7.729-2.456c4.623,0,11.485,3.034,11.485,15.169v20.587h-6.212v-19.792
		c0-6.718-2.456-10.763-7.585-10.763c-3.612,0-6.429,2.673-7.512,5.779c-0.289,0.867-0.506,2.023-0.506,3.179v21.598h-6.212V153.22
		c0-5.562-2.456-9.607-7.296-9.607c-3.973,0-6.862,3.179-7.874,6.357c-0.361,0.939-0.506,2.022-0.506,3.106v21.093h-6.212V148.669z"
		/>
	<path d="M261.861,174.168l-0.596-5.192h-0.256c-2.298,3.234-6.724,6.128-12.597,6.128c-8.341,0-12.597-5.873-12.597-11.831
		c0-9.958,8.852-15.406,24.769-15.32v-0.851c0-3.405-0.937-9.533-9.363-9.533c-3.83,0-7.83,1.191-10.724,3.064l-1.702-4.937
		c3.404-2.213,8.341-3.66,13.533-3.66c12.597,0,15.661,8.597,15.661,16.853v15.406c0,3.575,0.171,7.064,0.681,9.873H261.861z
		 M260.755,153.145c-8.171-0.17-17.449,1.277-17.449,9.277c0,4.852,3.234,7.149,7.064,7.149c5.362,0,8.767-3.404,9.958-6.894
		c0.256-0.766,0.426-1.617,0.426-2.383V153.145z"/>
	<path d="M280.073,145.825c0-4.852-0.085-9.022-0.34-12.852h6.554l0.255,8.085h0.341c1.872-5.532,6.384-9.022,11.405-9.022
		c0.851,0,1.446,0.085,2.128,0.255v7.064c-0.767-0.17-1.532-0.255-2.554-0.255c-5.277,0-9.022,4-10.043,9.618
		c-0.171,1.021-0.341,2.213-0.341,3.489v21.959h-7.405V145.825z"/>
	<path d="M318.969,121.142v11.831h10.725v5.703h-10.725v22.214c0,5.107,1.447,8.001,5.617,8.001c1.958,0,3.405-0.255,4.341-0.511
		l0.341,5.617c-1.447,0.596-3.745,1.021-6.639,1.021c-3.49,0-6.299-1.106-8.086-3.149c-2.128-2.213-2.894-5.873-2.894-10.725v-22.47
		h-6.384v-5.703h6.384V123.1L318.969,121.142z"/>
</g>
</svg>
