<svg width="376" height="249" xmlns="http://www.w3.org/2000/svg">
 <defs>
  <linearGradient y2="0.146022" x2="0.535168" y1="1.072369" x1="0.232426" id="SVGID_1_">
   <stop stop-color="#02C3F3" offset="0"/>
   <stop stop-color="#0089A3" offset="1"/>
  </linearGradient>
  <linearGradient y2="0.005929" x2="0.571892" y1="0.99412" x1="0.428173" id="SVGID_2_">
   <stop stop-color="#ED1C24" offset="0"/>
   <stop stop-color="#CC1923" offset="0.3646"/>
   <stop stop-color="#950D1A" offset="1"/>
  </linearGradient>
 </defs>
 <g>
  <title>background</title>
  <rect fill="none" id="canvas_background" height="251" width="378" y="-1" x="-1"/>
 </g>
 <g>
  <title>Layer 1</title>
  <path id="svg_1" d="m13.978,130.01c0,40.607 31.974,73.644 71.275,73.645l0,-147.29c-39.301,0 -71.275,33.036 -71.275,73.645z" fill="none"/>
  <polygon id="svg_2" points="31.17400360107422,246.27099609375 370,112.7969970703125 53.66600036621094,54.47900390625 " fill="url(#SVGID_1_)"/>
  <g id="svg_3">
   <path id="svg_4" d="m58.218,120.675c0,-5.004 -0.091,-9.306 -0.361,-13.256l6.958,0l0.271,8.34l0.361,0c1.988,-5.708 6.779,-9.306 12.111,-9.306c0.904,0 1.536,0.088 2.259,0.263l0,7.288c-0.813,-0.176 -1.626,-0.264 -2.711,-0.264c-5.604,0 -9.579,4.125 -10.664,9.92c-0.181,1.053 -0.361,2.282 -0.361,3.599l0,22.65l-7.863,0l0,-29.234z" fill="#FFFFFF"/>
   <path id="svg_5" d="m91.293,130.068c0.181,10.447 7.05,14.75 15.002,14.75c5.694,0 9.129,-0.967 12.111,-2.195l1.355,5.53c-2.802,1.229 -7.592,2.634 -14.55,2.634c-13.467,0 -21.51,-8.604 -21.51,-21.42c0,-12.818 7.772,-22.914 20.515,-22.914c14.28,0 18.076,12.202 18.076,20.016c0,1.581 -0.181,2.81 -0.272,3.599l-30.727,0zm23.317,-5.53c0.09,-4.916 -2.079,-12.554 -11.025,-12.554c-8.044,0 -11.568,7.199 -12.202,12.554l23.227,0z" fill="#FFFFFF"/>
   <path id="svg_6" d="m156.361,149.909l-0.633,-5.355l-0.271,0c-2.44,3.336 -7.139,6.321 -13.375,6.321c-8.857,0 -13.376,-6.057 -13.376,-12.203c0,-10.271 9.399,-15.89 26.299,-15.802l0,-0.878c0,-3.512 -0.994,-9.833 -9.941,-9.833c-4.067,0 -8.315,1.229 -11.389,3.161l-1.807,-5.092c3.615,-2.283 8.856,-3.775 14.37,-3.775c13.375,0 16.628,8.867 16.628,17.382l0,15.89c0,3.688 0.182,7.287 0.724,10.184l-7.229,0zm-1.175,-21.684c-8.677,-0.175 -18.528,1.317 -18.528,9.57c0,5.004 3.435,7.373 7.501,7.373c5.694,0 9.31,-3.511 10.575,-7.11c0.271,-0.79 0.452,-1.667 0.452,-2.458l0,-7.375z" fill="#FFFFFF"/>
   <path id="svg_7" d="m184.916,95.216l0,12.203l11.388,0l0,5.882l-11.388,0l0,22.914c0,5.268 1.537,8.252 5.965,8.252c2.079,0 3.615,-0.264 4.61,-0.527l0.36,5.794c-1.536,0.614 -3.977,1.054 -7.05,1.054c-3.705,0 -6.688,-1.141 -8.584,-3.248c-2.26,-2.283 -3.074,-6.057 -3.074,-11.062l0,-23.177l-6.778,0l0,-5.882l6.778,0l0,-10.183l7.773,-2.02z" fill="#FFFFFF"/>
   <path id="svg_8" d="m244.292,128.313c0,15.714 -11.208,22.562 -21.78,22.562c-11.84,0 -20.968,-8.429 -20.968,-21.86c0,-14.221 9.579,-22.561 21.69,-22.561c12.563,0 21.058,8.866 21.058,21.859zm-34.704,0.439c0,9.306 5.512,16.328 13.283,16.328c7.593,0 13.286,-6.935 13.286,-16.504c0,-7.199 -3.705,-16.329 -13.104,-16.329c-9.399,0.001 -13.465,8.428 -13.465,16.505z" fill="#FFFFFF"/>
   <path id="svg_9" d="m254.319,120.675c0,-5.004 -0.091,-9.306 -0.362,-13.256l6.958,0l0.273,8.34l0.361,0c1.988,-5.708 6.778,-9.306 12.11,-9.306c0.903,0 1.536,0.088 2.259,0.263l0,7.288c-0.813,-0.176 -1.625,-0.264 -2.712,-0.264c-5.604,0 -9.578,4.125 -10.663,9.92c-0.183,1.053 -0.362,2.282 -0.362,3.599l0,22.65l-7.862,0l0,-29.234z" fill="#FFFFFF"/>
  </g>
  <path id="svg_10" d="m85.253,52.146l0,-19.858c-44.872,0 -81.379,36.157 -81.379,80.6c0,28.917 15.463,54.314 38.623,68.538c11.049,6.786 23.849,11.019 37.563,11.879c2.293,-2.887 3.643,-6.383 3.643,-10.154c0,-3.593 -1.229,-6.93 -3.326,-9.733c-8.689,-0.693 -16.874,-3.199 -24.157,-7.166c-18.926,-10.309 -31.797,-30.363 -31.797,-53.363c-0.001,-33.494 27.288,-60.742 60.83,-60.743z"/>
  <path id="svg_11" d="m106.276,1.742c26.635,3.985 45.091,28.172 41.222,54.024c-3.868,25.852 -28.595,43.578 -55.23,39.592c-26.634,-3.985 -45.091,-28.172 -41.223,-54.024c3.868,-25.852 28.596,-43.578 55.231,-39.592z" fill="url(#SVGID_2_)"/>
  <g id="svg_12">
   <path id="svg_13" d="m60.442,58.667c1.878,1.228 5.201,2.528 8.379,2.528c4.623,0 6.79,-2.312 6.79,-5.201c0,-3.034 -1.806,-4.695 -6.501,-6.429c-6.285,-2.24 -9.246,-5.707 -9.246,-9.896c0,-5.634 4.551,-10.257 12.063,-10.257c3.54,0 6.646,1.011 8.596,2.167l-1.589,4.623c-1.373,-0.867 -3.9,-2.022 -7.151,-2.022c-3.756,0 -5.851,2.167 -5.851,4.768c0,2.889 2.095,4.189 6.646,5.923c6.067,2.312 9.174,5.345 9.174,10.546c0,6.14 -4.768,10.474 -13.075,10.474c-3.829,0 -7.368,-0.939 -9.824,-2.384l1.589,-4.84z" fill="#FFFFFF"/>
   <path id="svg_14" d="m89.911,39.669c0,-3.612 -0.072,-6.573 -0.289,-9.463l5.562,0l0.289,5.634l0.216,0c1.951,-3.323 5.201,-6.429 10.98,-6.429c4.768,0 8.379,2.889 9.896,7.007l0.145,0c1.083,-1.95 2.456,-3.467 3.901,-4.551c2.095,-1.589 4.406,-2.456 7.729,-2.456c4.623,0 11.485,3.034 11.485,15.169l0,20.587l-6.212,0l0,-19.792c0,-6.718 -2.456,-10.763 -7.585,-10.763c-3.612,0 -6.429,2.673 -7.512,5.779c-0.289,0.867 -0.506,2.023 -0.506,3.179l0,21.598l-6.212,0l0,-20.948c0,-5.562 -2.456,-9.607 -7.296,-9.607c-3.973,0 -6.862,3.179 -7.874,6.357c-0.361,0.939 -0.506,2.022 -0.506,3.106l0,21.093l-6.212,0l0,-25.5l0.001,0z" fill="#FFFFFF"/>
   <path id="svg_15" d="m176.861,65.168l-0.596,-5.192l-0.256,0c-2.298,3.234 -6.724,6.128 -12.597,6.128c-8.341,0 -12.597,-5.873 -12.597,-11.831c0,-9.958 8.852,-15.406 24.769,-15.32l0,-0.851c0,-3.405 -0.937,-9.533 -9.363,-9.533c-3.83,0 -7.83,1.191 -10.724,3.064l-1.702,-4.937c3.404,-2.213 8.341,-3.66 13.533,-3.66c12.597,0 15.661,8.597 15.661,16.853l0,15.406c0,3.575 0.171,7.064 0.681,9.873l-6.809,0zm-1.106,-21.023c-8.171,-0.17 -17.449,1.277 -17.449,9.277c0,4.852 3.234,7.149 7.064,7.149c5.362,0 8.767,-3.404 9.958,-6.894c0.256,-0.766 0.426,-1.617 0.426,-2.383l0,-7.149l0.001,0z"/>
   <path id="svg_16" d="m195.073,36.825c0,-4.852 -0.085,-9.022 -0.34,-12.852l6.554,0l0.255,8.085l0.341,0c1.872,-5.532 6.384,-9.022 11.405,-9.022c0.851,0 1.446,0.085 2.128,0.255l0,7.064c-0.767,-0.17 -1.532,-0.255 -2.554,-0.255c-5.277,0 -9.022,4 -10.043,9.618c-0.171,1.021 -0.341,2.213 -0.341,3.489l0,21.959l-7.405,0l0,-28.341z"/>
   <path id="svg_17" d="m233.969,12.142l0,11.831l10.725,0l0,5.703l-10.725,0l0,22.214c0,5.107 1.447,8.001 5.617,8.001c1.958,0 3.405,-0.255 4.341,-0.511l0.341,5.617c-1.447,0.596 -3.745,1.021 -6.639,1.021c-3.49,0 -6.299,-1.106 -8.086,-3.149c-2.128,-2.213 -2.894,-5.873 -2.894,-10.725l0,-22.47l-6.384,0l0,-5.703l6.384,0l0,-9.871l7.32,-1.958z"/>
  </g>
 </g>
</svg>